<?xml version="1.0" standalone="no"?>
<!DOCTYPE svg PUBLIC "-//W3C//DTD SVG 20010904//EN"
 "http://www.w3.org/TR/2001/REC-SVG-20010904/DTD/svg10.dtd">
<svg version="1.0" xmlns="http://www.w3.org/2000/svg"
 width="574.000000pt" height="574.000000pt" viewBox="0 0 574.000000 574.000000"
 preserveAspectRatio="xMidYMid meet">
<metadata>
Created by potrace 1.14, written by Peter Selinger 2001-2017
</metadata>
<g transform="translate(0.000000,574.000000) scale(0.100000,-0.100000)"
fill="#000000" stroke="none">
<path d="M2420 5025 l-395 -395 328 -328 328 -328 -512 -238 c-391 -181 -527
-240 -573 -247 -285 -45 -534 -253 -627 -522 -59 -172 -59 -345 -2 -520 65
-196 219 -369 408 -458 79 -37 183 -69 224 -69 l21 0 0 -565 0 -565 -265 0
-265 0 0 -95 0 -95 630 0 630 0 0 95 0 95 -270 0 -270 0 0 564 0 563 49 7
c144 19 327 119 436 237 86 93 159 226 192 349 24 89 24 300 0 390 -23 87 -96
232 -151 302 -61 76 -163 159 -253 206 -40 20 -73 39 -73 42 0 4 758 359 801
375 9 4 183 -67 410 -166 217 -94 414 -180 439 -191 l45 -19 -85 -45 c-274
-141 -430 -399 -430 -710 0 -377 252 -690 623 -770 l77 -17 0 -554 0 -553
-282 -2 -283 -3 -3 -92 -3 -93 666 0 665 0 0 95 0 95 -285 0 -285 0 0 554 0
555 58 11 c276 58 500 256 593 527 32 94 33 104 34 248 0 130 -3 160 -23 225
-87 278 -301 480 -587 553 -59 15 -278 105 -638 262 l-548 239 328 328 328
328 -395 395 c-217 217 -399 395 -405 395 -6 0 -188 -178 -405 -395z m670
-660 l-265 -265 -265 265 -265 265 265 265 265 265 265 -265 265 -265 -265
-265z m-1226 -1075 c113 -29 190 -73 277 -160 119 -118 179 -261 179 -425 0
-169 -57 -304 -179 -426 -120 -120 -260 -179 -425 -179 -90 0 -208 29 -286 71
-227 121 -359 401 -306 649 73 345 405 556 740 470z m2261 -5 c214 -54 384
-222 440 -435 19 -72 19 -230 0 -304 -41 -158 -174 -321 -316 -389 -236 -113
-496 -74 -683 102 -198 187 -247 465 -125 710 73 148 215 267 374 312 77 22
230 24 310 4z"/>
<path d="M1610 3011 c-117 -38 -204 -129 -235 -246 -42 -154 31 -315 177 -392
48 -25 63 -28 153 -28 86 0 107 3 150 24 66 33 131 100 163 169 23 48 27 71
27 142 0 71 -4 94 -26 141 -33 70 -91 130 -161 165 -43 22 -69 28 -138 30 -47
2 -96 0 -110 -5z"/>
<path d="M3853 3009 c-71 -27 -145 -100 -179 -174 -23 -49 -28 -74 -28 -136 0
-66 5 -86 32 -142 102 -206 360 -257 529 -104 177 161 120 473 -102 556 -73
28 -180 27 -252 0z"/>
</g>
</svg>
